<mxfile host="app.diagrams.net" modified="2023-06-12T14:09:13.775Z" agent="Mozilla/5.0 (Windows NT 10.0; Win64; x64) AppleWebKit/537.36 (KHTML, like Gecko) Chrome/114.0.0.0 Safari/537.36 Edg/114.0.1823.43" etag="fCItw0Bwbx8CGOaYqJ_R" version="21.3.8" type="github">
  <diagram name="Page-1" id="Eg0YPn72iaCniI5Gz89P">
    <mxGraphModel dx="880" dy="484" grid="0" gridSize="10" guides="1" tooltips="1" connect="1" arrows="1" fold="1" page="1" pageScale="1" pageWidth="850" pageHeight="1100" math="0" shadow="0">
      <root>
        <mxCell id="0" />
        <mxCell id="1" parent="0" />
        <mxCell id="6_2EtCLuYQugCAcqnwaj-3" value="" style="edgeStyle=orthogonalEdgeStyle;rounded=0;orthogonalLoop=1;jettySize=auto;html=1;labelBackgroundColor=none;strokeColor=#028090;fontColor=default;" edge="1" parent="1" source="6_2EtCLuYQugCAcqnwaj-1" target="6_2EtCLuYQugCAcqnwaj-2">
          <mxGeometry relative="1" as="geometry" />
        </mxCell>
        <mxCell id="6_2EtCLuYQugCAcqnwaj-1" value="Battery&amp;nbsp;" style="rounded=0;whiteSpace=wrap;html=1;labelBackgroundColor=none;fillColor=#F45B69;strokeColor=#028090;fontColor=#E4FDE1;" vertex="1" parent="1">
          <mxGeometry x="117" y="221" width="120" height="60" as="geometry" />
        </mxCell>
        <mxCell id="6_2EtCLuYQugCAcqnwaj-5" value="" style="edgeStyle=orthogonalEdgeStyle;rounded=0;orthogonalLoop=1;jettySize=auto;html=1;labelBackgroundColor=none;strokeColor=#028090;fontColor=default;" edge="1" parent="1" source="6_2EtCLuYQugCAcqnwaj-2" target="6_2EtCLuYQugCAcqnwaj-4">
          <mxGeometry relative="1" as="geometry" />
        </mxCell>
        <mxCell id="6_2EtCLuYQugCAcqnwaj-2" value="Inverter" style="rounded=0;whiteSpace=wrap;html=1;labelBackgroundColor=none;fillColor=#F45B69;strokeColor=#028090;fontColor=#E4FDE1;" vertex="1" parent="1">
          <mxGeometry x="317" y="221" width="120" height="60" as="geometry" />
        </mxCell>
        <mxCell id="6_2EtCLuYQugCAcqnwaj-4" value="Motor" style="rounded=0;whiteSpace=wrap;html=1;labelBackgroundColor=none;fillColor=#F45B69;strokeColor=#028090;fontColor=#E4FDE1;" vertex="1" parent="1">
          <mxGeometry x="517" y="221" width="120" height="60" as="geometry" />
        </mxCell>
      </root>
    </mxGraphModel>
  </diagram>
</mxfile>
